<svg width="1332" height="1765" viewBox="0 0 1332 1765" fill="none" xmlns="http://www.w3.org/2000/svg">
<circle cx="665.995" cy="1098.48" r="532" transform="rotate(-4.4798 665.995 1098.48)" stroke="#FF007A" stroke-width="175"/>
<path d="M1064.85 279.296C1064.66 277.133 1063.31 275.091 1061.05 273.558C1058.8 272.026 1055.79 271.109 1052.6 270.983C928.591 266.042 829.26 291.379 786.909 338.914C772.229 355.175 764.994 374.028 766.124 393.082C766.861 405.267 770.514 417.289 776.94 428.678C777.317 429.379 777.95 430.004 778.779 430.494C779.608 430.984 780.607 431.324 781.682 431.482C782.756 431.64 783.873 431.61 784.926 431.396C785.98 431.183 786.936 430.791 787.707 430.259L926.164 334.857C927.375 334.035 928.812 333.384 930.394 332.939C931.976 332.494 933.671 332.265 935.384 332.265C937.096 332.265 938.791 332.494 940.373 332.939C941.955 333.384 943.392 334.035 944.603 334.857C945.814 335.679 946.774 336.654 947.43 337.728C948.085 338.801 948.422 339.952 948.422 341.114C948.422 342.276 948.085 343.427 947.43 344.5C946.774 345.574 945.814 346.549 944.603 347.371L793.294 451.606L770.18 467.292C767.776 468.88 766.341 471.025 766.16 473.298C765.979 475.572 767.065 477.808 769.203 479.563C770.373 480.483 771.811 481.229 773.425 481.755C775.04 482.281 776.797 482.576 778.587 482.621C780.377 482.665 782.161 482.459 783.829 482.015C785.496 481.57 787.01 480.898 788.277 480.038L815.626 461.477C838.659 469.039 861.904 473.162 884.953 473.715C886.766 473.759 888.574 473.781 890.377 473.781C916.625 473.827 942.376 468.92 964.753 459.609C1034.8 430.867 1072.15 363.467 1064.85 279.296Z" fill="#4ECB71"/>
<path d="M633.864 767.992L626.856 812.444L715.759 826.459L722.766 782.008L633.864 767.992ZM557.549 9.519C537.953 -5.76741 509.676 -2.27409 494.389 17.3215C479.103 36.9171 482.596 65.1946 502.192 80.481L557.549 9.519ZM711.87 363.666H756.87V361.119L756.583 358.588L711.87 363.666ZM642.936 158.809L680.66 134.275L678.624 131.145L676.1 128.393L642.936 158.809ZM690.351 250.767L733.779 238.977L733.008 236.137L731.874 233.422L690.351 250.767ZM711.87 562.149L756.321 569.156L756.87 565.674V562.149H711.87ZM589.321 96.897L624.44 68.7603L622.621 66.4906L620.526 64.4739L589.321 96.897ZM611.205 124.211L576.086 152.348L577.025 153.52L578.041 154.627L611.205 124.211ZM559.048 67.7618L590.253 35.3388L588.57 33.7182L586.727 32.2808L559.048 67.7618ZM668.103 197.504L709.626 180.16L708.052 176.392L705.826 172.97L668.103 197.504ZM705.305 305.851L750.018 300.773L749.631 297.368L748.733 294.061L705.305 305.851ZM722.766 782.008L756.321 569.156L667.419 555.141L633.864 767.992L722.766 782.008ZM756.87 562.149V363.666H666.87V562.149H756.87ZM676.1 128.393L644.369 93.7949L578.041 154.627L609.772 189.225L676.1 128.393ZM646.324 96.0745L624.44 68.7603L554.202 125.034L576.086 152.348L646.324 96.0745ZM620.526 64.4739L590.253 35.3388L527.844 100.185L558.116 129.32L620.526 64.4739ZM586.727 32.2808L557.549 9.519L502.192 80.481L531.37 103.243L586.727 32.2808ZM731.874 233.422L709.626 180.16L626.58 214.849L648.828 268.112L731.874 233.422ZM705.826 172.97L680.66 134.275L605.213 183.344L630.379 222.039L705.826 172.97ZM756.583 358.588L750.018 300.773L660.592 310.928L667.157 368.743L756.583 358.588ZM748.733 294.061L733.779 238.977L646.923 262.557L661.877 317.64L748.733 294.061Z" fill="#FF007A"/>
<path d="M586.379 789.427L734.87 830" stroke="#FF007A" stroke-width="30" stroke-linecap="round"/>
</svg>
